<?xml version="1.0" standalone="no"?><!DOCTYPE svg PUBLIC "-//W3C//DTD SVG 1.1//EN" "http://www.w3.org/Graphics/SVG/1.1/DTD/svg11.dtd"><svg t="1582200828683" class="icon" viewBox="0 0 1024 1024" version="1.1" xmlns="http://www.w3.org/2000/svg" p-id="4050" xmlns:xlink="http://www.w3.org/1999/xlink" width="200" height="200"><defs><style type="text/css"></style></defs><path d="M894.4 281.5c-6.9-7.3-16.8-11.4-27.1-11.8l-293.9-11-22 46.9 30.6 87.2-55.2 99 22.4 79.9 56 68.5 81-70.5c7.8-6.9 20.3-6.5 27.1 1.2l103.9 106.4c7.3 7.3 6.9 19.2-0.9 26.1-3.9 3.3-8.6 5.3-13.8 4.9l-284.8-10.6-14.2 38.7L519 771l327.5 11.8c21.5 0.8 39.6-15.1 40.1-35.5L904.8 308c0.4-9.8-3.1-19.6-10.4-26.5zM684.1 483.2c-32.3-1.2-57.3-26.9-56-57.1 1.3-30.6 28.4-54.2 60.3-53 31.9 1.2 57.3 26.9 56 57.1-1.2 30.2-28.4 54.3-60.3 53zM473 736.8l9.9-40.8-231.4 15.1c-10.8 0.8-19.8-6.5-20.7-16.7-0.4-4.9 1.3-9.8 4.7-13.5L407 494.6c3.4-4.1 8.6-6.1 14.2-6.1 5.2 0 10.3 2 14.2 5.7l57.3 56.7-24.6-60.3 44-104.3-40.1-83.6 16.4-48.1L173 275.4c-21.5 1.2-37.5 18.8-36.2 39.1l31.9 439.4c0.4 9.8 5.2 18.7 13.4 24.9 7.8 6.5 17.7 9.8 28 9l281.8-18.3-18.9-32.7z m0 0" p-id="4051" fill="#8a8a8a"></path></svg>