<?xml version="1.0" standalone="no"?><!DOCTYPE svg PUBLIC "-//W3C//DTD SVG 1.1//EN" "http://www.w3.org/Graphics/SVG/1.1/DTD/svg11.dtd"><svg t="1582341458754" class="icon" viewBox="0 0 1024 1024" version="1.1" xmlns="http://www.w3.org/2000/svg" p-id="3294" xmlns:xlink="http://www.w3.org/1999/xlink" width="200" height="200"><defs><style type="text/css"></style></defs><path d="M672 646.4H595.2c-12.8 0-25.6 12.8-25.6 25.6s12.8 25.6 25.6 25.6h70.4c12.8 0 25.6-12.8 25.6-25.6s-6.4-25.6-19.2-25.6z m0-108.8H595.2c-12.8 0-19.2 12.8-19.2 25.6s6.4 25.6 19.2 25.6h70.4c12.8 0 25.6-12.8 25.6-25.6s-6.4-25.6-19.2-25.6zM537.6 435.2H467.2c-12.8 0-25.6 12.8-25.6 25.6s12.8 25.6 25.6 25.6h70.4c12.8 0 25.6-12.8 25.6-25.6 0-19.2-12.8-25.6-25.6-25.6z m0 102.4H467.2c-12.8 0-25.6 12.8-25.6 25.6s12.8 25.6 25.6 25.6h70.4c12.8 0 25.6-12.8 25.6-25.6s-12.8-25.6-25.6-25.6z m0 108.8H467.2c-12.8 0-25.6 12.8-25.6 25.6s12.8 25.6 25.6 25.6h70.4c12.8 0 25.6-12.8 25.6-25.6s-12.8-25.6-25.6-25.6z m268.8-435.2H460.8c-12.8 0-25.6 12.8-25.6 19.2v160c0 12.8 12.8 25.6 25.6 25.6h345.6c12.8 0 25.6-12.8 25.6-25.6V230.4c0-6.4-12.8-19.2-25.6-19.2z m-19.2 160H486.4V256h300.8v115.2z m115.2-236.8c-19.2-19.2-51.2-38.4-83.2-38.4H403.2c-6.4-12.8-19.2-25.6-32-38.4C352 32 320 19.2 288 19.2H211.2c-32 0-64 12.8-83.2 32-25.6 25.6-38.4 57.6-38.4 89.6v544c0 32 12.8 64 38.4 83.2 19.2 19.2 44.8 32 70.4 32-6.4 6.4-6.4 19.2-12.8 25.6-19.2 32-32 57.6-25.6 96 6.4 32 25.6 51.2 44.8 64 12.8 6.4 32 12.8 51.2 12.8 19.2 0 32-6.4 51.2-12.8 25.6-12.8 38.4-32 44.8-64 0-32-12.8-64-32-89.6-6.4-6.4-6.4-12.8-12.8-25.6h505.6c32 0 64-12.8 83.2-32 19.2-19.2 38.4-51.2 38.4-83.2V217.6c0-32-12.8-64-32-83.2zM275.2 947.2c-6.4 6.4-19.2 6.4-25.6 6.4-12.8 0-19.2 0-25.6-6.4-12.8-6.4-19.2-19.2-25.6-32-6.4-19.2 6.4-44.8 19.2-64 6.4-12.8 19.2-32 25.6-44.8H256c6.4 19.2 12.8 32 25.6 44.8 12.8 19.2 25.6 44.8 19.2 64 0 19.2-12.8 25.6-25.6 32z m57.6-262.4c0 12.8-6.4 25.6-12.8 32H211.2c-6.4 0-12.8-6.4-19.2-6.4l-6.4-6.4c-6.4-6.4-12.8-19.2-12.8-32V140.8c0-12.8 6.4-25.6 12.8-32 6.4-6.4 19.2-12.8 32-12.8h76.8c12.8 0 25.6 6.4 32 12.8 0 12.8 6.4 19.2 6.4 32v544z m524.8 0c0 12.8-6.4 25.6-12.8 32-6.4 6.4-19.2 12.8-32 12.8H403.2v-512h403.2c12.8 0 25.6 6.4 32 12.8 6.4 6.4 12.8 19.2 12.8 32v422.4h6.4z m-185.6-249.6H595.2c-12.8 0-19.2 6.4-19.2 19.2 0 12.8 12.8 25.6 25.6 25.6h70.4c12.8 0 25.6-12.8 25.6-25.6-6.4-12.8-12.8-19.2-25.6-19.2z m128 102.4h-70.4c-12.8 0-25.6 12.8-25.6 25.6s12.8 25.6 25.6 25.6h70.4c12.8 0 25.6-12.8 25.6-25.6s-12.8-25.6-25.6-25.6z m0-102.4h-70.4c-12.8 0-25.6 12.8-25.6 25.6s12.8 25.6 25.6 25.6h70.4c12.8 0 25.6-12.8 25.6-25.6 0-19.2-12.8-25.6-25.6-25.6z m0 211.2h-70.4c-12.8 0-25.6 12.8-25.6 25.6s12.8 25.6 25.6 25.6h70.4c12.8 0 25.6-12.8 25.6-25.6s-12.8-25.6-25.6-25.6z" fill="#2c2c2c" p-id="3295"></path></svg>